<svg width="301" height="101" viewBox="0 0 301 101" fill="none" xmlns="http://www.w3.org/2000/svg">
<path d="M2.6359 65.7217L0 66.2614C0 65.8588 1.80592 64.5096 3.05546 63.4347C3.33365 63.1648 3.74865 63.1648 3.47046 63.7045L2.6359 65.7261V65.7217ZM66.7686 82.0138C68.5745 82.9561 66.0755 86.9948 64.5477 89.8259C62.4636 93.5949 60.3841 101 58.3 101C54.5513 98.8457 46.3609 93.5949 46.3609 87.6672C46.3609 79.5897 52.4673 67.3363 56.6354 59.9267L55.9423 58.7147C52.6086 58.7147 40.6741 60.3293 39.4246 60.3293C39.0096 59.7896 38.3164 59.387 37.6186 59.387C35.3977 59.387 34.2896 61.0017 33.455 63.0233C30.8191 69.2163 26.3773 85.1059 24.9864 91.299C22.0723 91.299 21.3791 89.8171 19.71 88.2025C19.5732 88.3352 19.295 88.4723 19.0168 88.4723H18.3236C17.7673 88.4723 17.3523 88.2025 16.7959 88.0698L17.4891 86.4551C9.16182 81.2043 13.7404 76.2233 15.405 65.7172C12.2127 65.0448 7.7709 65.5845 4.15907 65.5845C5.6868 62.8905 8.60089 62.3509 11.1 61.1388L8.87907 59.9267L16.9327 56.6931C17.7673 54.6715 18.8754 53.7292 19.8468 51.8448C22.3459 47.399 23.1804 41.206 25.675 36.6275C32.2009 24.644 40.9432 11.581 45.2482 1.07936C45.8045 0.676814 45.385 0 47.1909 0C54.5468 0 53.995 4.1759 58.0172 7.81211C58.1541 12.3906 59.1254 15.6242 57.0459 22.4897H56.0745C54.6882 26.7983 49.69 33.3983 46.7713 39.3215C44.1354 40.5336 42.4663 43.2276 42.4663 45.6517L45.3804 44.8422C49.2659 40.3965 54.8204 39.8612 60.2336 39.8612C62.0395 39.8612 64.8168 40.6707 66.8963 41.3431C75.5018 30.9742 80.9149 18.9906 87.304 7.13971C87.8604 6.19748 89.11 5.52509 90.4963 5.52509C95.3531 5.52509 97.1591 12.3905 97.1591 17.5087C97.1591 20.6052 96.744 24.2414 94.5231 25.856C94.1081 29.625 92.7172 33.2612 89.525 35.0129C90.6331 37.5698 86.3327 42.5552 84.2486 46.1914C82.4427 45.6517 80.085 47.5362 79.1136 49.1552C78.1422 50.7699 76.4777 53.8664 75.2281 56.4276C74.95 56.9673 76.0627 57.6397 76.7559 56.2949L78.4204 52.9286C79.1136 51.5838 80.3631 50.5044 81.6127 50.6371C77.1709 58.3121 75.0868 66.1242 69.6736 73.6621L68.1459 73.1224C67.5895 72.8525 66.34 73.6621 65.7881 74.4672C65.2318 75.4094 64.1236 77.024 63.0109 78.9085C61.7613 80.7929 63.0109 84.0266 63.1477 85.3714C62.1763 86.986 60.2336 88.3352 60.2336 90.0825C61.2049 92.1041 63.7041 88.1981 66.7595 82.005L66.7686 82.0138ZM29.8432 64.6423L31.0927 65.0449L32.6204 61.0061C31.3709 61.0061 30.5364 62.8905 29.8432 64.6423ZM48.445 68.8182L49.9727 69.3579C49.1382 72.9941 47.1954 74.2062 46.9173 74.2062L48.445 68.8182ZM59.1345 85.1104L57.7482 87.8044L58.5827 88.8837L60.945 84.3053C60.53 84.3053 59.5587 84.3053 59.1391 85.1148L59.1345 85.1104ZM65.6605 79.8596C65.3823 80.3992 64.9673 80.3992 64.9673 79.9922L64.8305 78.5104L66.9146 75.5465C67.1927 75.144 67.6077 74.8741 67.8859 75.144L68.3009 75.5465L65.665 79.8551L65.6605 79.8596ZM73.7141 59.9312L68.0227 70.7027C69.6873 70.5699 70.9368 68.2785 71.7714 66.5268L75.52 59.1216C74.9636 58.9889 73.9923 59.3915 73.7141 59.9312Z" fill="white"/>
<path d="M124.855 48.355H123.943C121.703 51.4073 120.381 57.0342 116.568 59.0425L116.901 60.0068L113.668 61.7763C110.435 66.2751 109.03 71.8223 107.206 76.4007C106.96 77.0422 105.879 78.3295 106.96 78.6524C107.206 78.732 107.79 77.0466 107.872 76.8033C109.778 72.623 111.187 66.3547 114.17 63.0635C115.328 62.661 114.502 63.6253 114.334 63.8686C111.433 68.6107 110.024 74.0739 107.621 79.7008C105.965 83.4785 105.386 86.9334 105.797 88.5392C104.305 88.057 102.978 87.4952 101.656 86.7697V84.1996C101.077 84.6818 100.826 85.2436 100.744 86.1283C98.8376 84.7614 97.2642 82.9123 96.188 80.0989C96.188 65.6337 111.598 45.8645 117.563 35.2523C118.06 34.6108 119.136 34.1287 120.048 34.1287C120.878 34.1287 121.703 34.4516 122.615 34.6905V36.6192C124.271 37.2606 125.598 39.1097 125.598 40.8791C125.598 43.0511 125.265 45.9441 124.855 48.355ZM105.468 80.4218L104.556 82.5938C104.474 82.8327 104.72 83.6378 105.218 82.8327L106.376 80.0193C105.218 78.8957 105.546 80.1785 105.464 80.4218H105.468Z" fill="white"/>
<path d="M160.562 38.4726C163.544 39.198 165.035 41.7682 164.789 44.8205C165.204 45.1434 165.368 45.5415 165.368 45.9441C165.368 47.6339 162.55 49.8811 159.403 50.5269C157.661 48.3549 160.397 48.2753 159.567 47.395C151.199 47.395 146.972 49.0008 139.766 53.9862V55.1894L143.246 57.6003C146.807 60.0112 150.287 61.1348 152.772 63.7889L153.685 63.2271C156.088 65.7176 157.497 68.7699 157.328 70.8623L156.831 77.2898L155.422 76.9669C153.019 80.1829 148.212 83.0759 143.323 85.1638C140.756 84.1199 139.347 84.5224 139.429 86.69C135.452 88.1365 131.89 88.862 130.399 88.862C129.241 88.862 127.253 87.5747 125.26 85.7301C121.944 85.0887 121.201 83.16 121.616 81.7134C120.54 80.2669 119.792 78.9 119.792 78.0153C119.792 76.007 121.201 74.7993 122.528 73.835C123.937 74.9586 126.09 77.772 127.581 77.772C131.475 77.772 139.182 75.6 144.482 71.1012V70.2961C142.411 68.3674 140.751 64.8329 139.26 65.7973C137.021 62.9042 136.027 61.6966 134.535 62.745C133.377 61.7806 131.138 59.8519 130.723 57.6003C130.226 55.0302 129.232 52.0531 129.314 50.3677C129.811 43.7765 143.232 37.1853 153.753 37.1853C155.823 37.1853 158.56 37.2649 160.63 37.5082L160.548 38.4726H160.562ZM138.439 85.2479L135.539 86.4511L135.954 87.0129L138.439 86.2078V85.2435V85.2479ZM145.895 49.1645C142.913 50.0492 139.848 51.2524 139.762 52.5397L145.895 49.2441V49.1645ZM162.053 50.4517L164.123 49.0848C164.123 50.0492 163.877 50.1288 162.796 51.0135L162.053 50.4517Z" fill="white"/>
<path d="M202.154 69.8135C201.492 71.1804 201.739 74.7149 200.001 76.3251C201.16 76.9665 200.498 78.9748 199.422 79.9392C199.919 81.1424 200.252 82.0271 198.51 84.2787C198.428 84.6017 199.258 84.1991 199.422 84.0399C199.258 86.7737 198.592 88.9412 197.767 91.3521C195.199 91.3521 192.878 88.9412 191.551 89.4234C191.633 87.8176 191.387 87.1718 190.224 87.1718L190.306 86.0482C190.721 86.0482 191.049 85.8049 191.136 85.2431C190.721 85.2431 190.392 84.9998 190.392 84.438C190.557 82.5889 191.551 80.2577 192.048 77.8468C192.627 77.8468 192.627 78.8908 192.545 80.0984C193.124 80.0984 194.036 76.8028 194.2 74.9538L193.206 74.5512C193.124 75.8385 193.124 77.6035 192.13 77.2054C192.376 76.0818 192.627 73.2684 192.873 72.304L194.282 73.9938C194.2 73.0295 194.615 72.7906 194.447 71.583C189.722 71.4237 177.213 77.9309 173.487 80.4214L173.072 81.4653L173.405 82.4297C171.996 85.2431 170.755 88.5387 169.428 90.2241L164.207 88.0521C163.96 85.5616 160.394 84.5176 161.306 82.4253H159.979C161.803 70.2913 175.64 57.2726 183.424 47.1469C187.319 42.1659 191.213 38.7907 194.442 36.2958C195.021 35.8136 197.342 36.6187 197.507 35.0881C198.583 35.4111 200.904 36.3754 202.145 37.3398L200.653 37.8219C200.571 39.1888 202.642 37.6627 203.057 37.9812C206.121 40.5513 204.384 44.8909 205.957 47.2221C206.039 47.6246 205.875 54.5344 204.635 55.2598C204.799 55.4191 204.881 55.4191 205.132 55.5827C204.635 57.3522 203.973 59.679 203.805 61.9306C203.722 62.895 206.869 65.6288 206.623 69.1633C205.132 69.3225 203.558 69.6454 202.149 69.8047L202.154 69.8135ZM175.89 76.241C175.475 76.8028 175.311 77.1258 174.978 77.6876L181.276 74.4716C180.2 73.6665 177.464 75.4359 175.89 76.241ZM179.452 72.8658C178.791 73.1047 178.294 73.1888 177.71 73.4276L176.716 74.7945C177.049 74.6353 178.955 73.9894 179.448 72.8658H179.452ZM199.668 45.3819C198.095 45.4615 194.282 49.9648 190.721 54.5432L190.306 54.1406C190.552 53.4992 190.803 53.0171 190.47 52.6941C189.143 54.1407 188.564 54.8661 189.312 56.3923C188.071 57.998 186.908 59.4446 185.832 60.7318C184.341 62.5809 182.102 66.0357 180.2 68.6855C181.855 67.7211 183.1 66.0357 186.416 64.6688C189.316 63.4656 191.054 63.1427 194.036 62.3376C194.282 60.2497 195.112 58.7191 195.445 57.5955L196.855 58.7987C197.849 56.3082 199.007 49.7967 199.919 46.1826L199.673 45.3775L199.668 45.3819ZM185.171 72.5473V72.4677C183.347 72.5473 182.603 72.7066 182.27 73.9938C183.014 73.5913 184.259 73.1091 185.171 72.5473ZM192.463 80.6647L192.13 81.7086H192.627L192.96 80.4214L192.463 80.6602V80.6647ZM195.03 61.2981C194.697 62.2624 195.281 62.2624 195.86 62.1828L195.942 61.2981H195.03ZM195.778 60.0108L195.445 59.9312L195.112 60.8159H195.856L195.774 60.0108H195.778ZM198.182 50.124H197.438L198.1 47.952L198.847 47.6291L198.186 50.1196L198.182 50.124Z" fill="white"/>
<path d="M264.457 39.6751C265.369 39.1133 267.025 38.7108 268.767 38.6312C271.749 38.5515 274.071 38.9541 275.48 39.9184L273.824 41.042L273.988 41.365C274.568 41.365 276.141 40.8828 276.638 40.5599L278.959 42.9707C274.65 44.8994 266.947 50.4466 262.72 56.069C262.223 56.7105 261.89 55.7461 261.393 56.069C261.228 58.9621 259.486 60.4882 257.498 63.545C257.083 64.2704 257.247 65.3144 256.75 66.438C256.75 66.9202 255.51 67.4024 255.259 68.1278C253.189 74.3165 250.37 80.744 247.721 87.3352L243.99 85.6454L243.493 86.769C238.189 85.4021 237.692 83.3937 236.949 78.0102C236.703 75.9223 237.364 72.3037 236.785 70.5343C234.796 64.9074 236.703 62.4966 236.206 58.4003L235.791 55.2684C233.223 56.0735 230.323 58.4843 228.17 62.2621L228.421 63.5494C224.28 71.1049 220.55 81.5491 216.819 86.3752H214.498C212.095 86.3752 210.772 80.9917 209.778 80.5095L209.281 76.9751C208.866 74.4846 209.614 73.5999 210.193 72.0737C216.076 58.2499 225.521 49.8937 232.065 43.3821C234.55 44.2669 241.345 48.3631 242.504 51.3402C243.498 53.7511 244.492 58.8161 245.322 62.1073C250.958 52.6231 259.24 40.812 261.064 40.1662L262.806 39.9229C257.667 44.8242 254.023 50.6103 252.035 53.4237C251.291 54.627 250.958 55.1136 251.123 55.1932L251.62 55.5161C254.023 51.8976 259.573 44.2624 264.462 39.684L264.457 39.6751ZM231.65 45.302L229.826 47.151C230.82 47.9561 231.732 46.3459 232.311 45.7841L231.65 45.302ZM256.34 70.8572L255.596 70.375C255.678 69.2514 255.761 67.7253 256.755 68.1234L256.34 70.8572ZM262.884 52.2117C262.223 53.176 260.896 54.8658 261.726 55.264L263.468 52.6938C263.632 52.4506 263.053 51.9684 262.888 52.2117H262.884ZM262.469 43.6918L263.878 41.9223L263.217 41.5994C262.802 41.9223 262.305 42.4841 261.808 43.2892C261.89 43.4485 262.141 43.7714 262.469 43.6918ZM265.036 49.3983L263.381 51.4862C263.878 51.4066 264.042 51.5658 264.124 51.8887L265.616 49.8008C265.78 49.6415 265.451 48.9161 265.036 49.3983ZM271.334 42.7274L271.498 43.4485C272.328 42.8867 273.072 42.8071 272.908 41.5994L271.334 42.723V42.7274Z" fill="white"/>
<path d="M300.248 48.355H299.335C297.096 51.4073 295.774 57.0342 291.961 59.0425L292.294 60.0068L289.065 61.7763C285.832 66.2751 284.428 71.8223 282.603 76.4007C282.357 77.0422 281.276 78.3295 282.357 78.6524C282.603 78.732 283.187 77.0466 283.269 76.8033C285.175 72.623 286.585 66.3547 289.567 63.0635C290.725 62.661 289.9 63.6253 289.731 63.8686C286.831 68.6107 285.422 74.0739 283.023 79.7008C281.368 83.4785 280.784 86.9334 281.199 88.5392C279.708 88.057 278.38 87.4952 277.058 86.7697V84.1996C276.479 84.6818 276.228 85.2436 276.146 86.1283C274.24 84.7614 272.666 82.9123 271.59 80.0989C271.59 65.6337 287 45.8645 292.965 35.2523C293.462 34.6108 294.538 34.1287 295.45 34.1287C296.28 34.1287 297.105 34.4516 298.018 34.6905V36.6192C299.673 37.2606 301 39.1097 301 40.8791C301 43.0511 300.667 45.9441 300.252 48.355H300.248ZM280.861 80.4218L279.949 82.5938C279.867 82.8327 280.113 83.6378 280.611 82.8327L281.769 80.0193C280.611 78.8957 280.939 80.1785 280.857 80.4218H280.861Z" fill="white"/>
</svg>
