<?xml version="1.0" encoding="UTF-8"?>
<svg id="Layer_1" data-name="Layer 1" xmlns="http://www.w3.org/2000/svg" viewBox="0 0 1080 1080">
  <defs>
    <style>
      .cls-1 {
        fill: #fff;
      }
    </style>
  </defs>
  <g>
    <g>
      <path class="cls-1" d="m552.2,776.37c-20.9-4.99-42.37-9.99-64.39-14.99-22.04-4.99-42.82-11.58-62.35-19.76v-5.45h-5.45v-5.45l-10.22.68-2.73-7.5-8.18-2.73-13.63-12.95v-5.45l-5.45.68-8.18-15.67-7.5-5.45-11.58-18.4-7.5.68c-13.18-17.72-26.91-34.75-41.22-51.11-14.31-16.35-30.56-30.43-48.72-42.25l-6.81,10.22-2.72.68-2.73,10.9-8.18,5.45-9.54,20.44-8.18,2.72-4.77,21.12-10.22,14.31h-5.45v7.5h-7.5l-2.04,15.67h-5.45l-18.4,32.71c-16.81,5.45-32.71,12.72-47.7,21.81-14.99,9.09-31.12,15.67-48.38,19.76l10.9-3.41-.68-5.45,15.67-5.45v-4.77l23.85-17.04c13.63-17.26,26.34-34.86,38.16-52.81,11.81-17.94,22.93-35.77,33.39-53.49h5.45c18.16-37.7,34.86-75.98,50.08-114.82,15.21-38.84,27.6-78.7,37.14-119.59-8.63.46-17.38-.56-26.23-3.07-8.86-2.49-16.25-7.15-22.15-13.97h2.73l18.4,2.04c10.44-7.26,21.46-11.01,33.05-11.24,11.58-.22,23.51-1.47,35.77-3.75l37.48,10.22v4.77h2.73l2.73,16.35-15.67,4.77v10.9l-7.5,6.13.68,4.77h-5.45l-2.72,10.9h-6.13c-4.55,19.08-12.38,37.59-23.51,55.53-11.14,17.95-20.1,36.69-26.92,56.22l-7.5,2.73-2.04,18.4c12.27,1.36,23.61,4.66,34.07,9.88,10.45,5.23,20.44,12.16,29.98,20.78l2.73,8.18h5.45l5.45,12.95,4.77,2.04,24.53,23.85,13.63,12.27,2.72,10.9,10.9,10.22,18.4,7.5,10.9,15.67,8.18,5.45,15.67,12.27v5.45c8.62,0,16.58,2.04,23.85,6.13,7.26,4.09,14.53,7.05,21.81,8.86v2.73l65.56,31.08,38.01,9.13-53.15,11.58v.04ZM112.69,515.39l-.68-8.18c12.27-20.89,22.93-42.93,32.03-66.1,9.08-23.17,15.9-47.02,20.44-71.55l-10.9-31.34h2.73l13.63,12.95,28.62,10.22,8.86,15.67-2.73,12.95h-8.18v8.18h-2.73c.45,12.27-2.28,23.17-8.18,32.71-5.91,9.54-12.27,19.08-19.08,28.62l-13.63,4.77-2.04,5.45-7.5,8.18-5.45.68-4.77,12.95-20.44,23.85h0Z"/>
      <path class="cls-1" d="m552.15,780.98l-1-.24c-20.45-4.88-42.1-9.92-64.34-14.98-22.17-5.02-43.4-11.75-63.09-20l-2.76-1.16v-3.94h-5.45v-5.14l-8.8.59-3.14-8.63-7.06-2.36-15.75-14.97v-2.29l-3.5.44-9.13-17.51-7.34-5.34-10.58-16.8-7.26.66-1.51-2.02c-13.08-17.58-26.87-34.68-41-50.83-12.97-14.82-27.78-27.92-44.08-38.98l-5.29,7.93-1.79.45-2.49,9.97-8.58,5.72-9.83,21.06-7.61,2.53-4.41,19.54-12.1,16.93h-3.27v7.5h-8.04l-2.04,15.67h-6.77l-17.97,31.95-1.67.54c-16.38,5.31-32.11,12.5-46.75,21.37-15.3,9.28-32.01,16.11-49.67,20.29l-2.38-8.67,7.31-2.29-.67-5.33,16.09-5.6v-3.88l25.21-18.01c13.31-16.88,25.94-34.37,37.54-51.99,11.66-17.72,22.86-35.65,33.27-53.3l1.31-2.21h5.19c17.56-36.61,33.95-74.26,48.72-111.96,14.37-36.69,26.35-74.8,35.62-113.36-7.18-.15-14.47-1.27-21.75-3.32-9.67-2.72-17.86-7.89-24.33-15.35l-6.44-7.45,13.07.03,16.75,1.86c10.73-7.12,22.2-10.85,34.11-11.09,11.3-.22,23.09-1.45,35.04-3.67l1.01-.19,41.79,11.4v3.71h2.04l4,24.01-16.26,4.95v9.7l-7.18,5.88,1.06,7.39h-7.13l-2.72,10.9h-6.13c-4.75,18.27-12.54,36.22-23.2,53.41-10.9,17.56-19.81,36.18-26.49,55.33l-.7,2.02-6.88,2.5-1.25,11.24c11.05,1.67,21.5,4.94,31.12,9.74,10.77,5.39,21.19,12.61,30.99,21.47l.88.79,2.07,6.22h5.2l5.91,14.03,3.87,1.66,25.07,24.37,14.59,13.13,2.74,10.95,9.33,8.74,18.86,7.68,11.18,16.07,7.74,5.18,17.4,13.62v3.32c7.68.61,14.92,2.8,21.55,6.53,6.9,3.88,13.86,6.71,20.69,8.41l3.41.85v3.4l62.57,29.66,56.66,13.61-73.35,15.99-.03-.03Zm-122.2-42.38c18.43,7.53,38.21,13.71,58.84,18.38,21.92,4.98,43.25,9.95,63.44,14.76l32.95-7.18-19.36-4.65-68.56-32.5v-2.14c-6.5-1.92-13.05-4.73-19.51-8.37-6.55-3.68-13.84-5.55-21.64-5.55h-4.5v-7.76l-13.81-10.81-8.74-5.83-10.63-15.28-17.94-7.31-12.48-11.7-2.71-10.85-12.73-11.46-23.93-23.27-5.67-2.43-5-11.87h-5.71l-3.38-10.12c-8.94-7.96-18.39-14.45-28.1-19.31-9.95-4.96-20.9-8.14-32.55-9.43l-4.47-.5,2.85-25.65,8.12-2.95c6.82-19.06,15.77-37.58,26.63-55.09,10.82-17.44,18.54-35.68,22.95-54.2l.82-3.46h6.17l2.72-10.9h3.78l-.31-2.15,7.81-6.39v-12.1l15.08-4.59-1.45-8.7h-3.41v-5.83l-33.17-9.05c-12.09,2.19-24.02,3.41-35.49,3.64-10.63.22-20.91,3.73-30.57,10.44l-1.39.96-8.27-.92c2.88,1.63,6,2.92,9.33,3.85,8.35,2.36,16.68,3.33,24.78,2.91l5.98-.32-1.36,5.83c-9.54,40.89-22.1,81.33-37.33,120.21-15.2,38.78-32.1,77.52-50.22,115.13l-1.23,2.55h-5.71c-10.12,17.06-20.94,34.36-32.2,51.46-11.86,18.01-24.77,35.89-38.39,53.12l-.4.5-22.48,16.06v1.51c5.37-2.5,10.59-5.28,15.65-8.35,14.73-8.93,30.53-16.22,46.97-21.69l18.83-33.48h4.13l2.04-15.67h6.95v-7.5h7.63l8.35-11.69,5.13-22.71,8.75-2.92,9.25-19.83,7.78-5.18,2.96-11.83,3.66-.91,8.32-12.48,3.73,2.43c18.46,12.01,35.16,26.49,49.65,43.06,13.74,15.71,27.17,32.3,39.94,49.36l7.73-.7,12.59,20,7.65,5.56,7.22,13.84,7.41-.93v8.62l11.5,10.93,9.29,3.1,2.31,6.36,11.65-.78v5.76h5.45v6.94h.03Zm-320.85-212.11l-1.69-20.33.72-1.23c12.06-20.54,22.73-42.56,31.72-65.46,8.79-22.42,15.52-45.82,19.99-69.56l-12.59-36.19h10.85l14.24,13.53,29.3,10.46,10.52,18.61-3.83,18.18h-7.33v8.18h-2.71c-.31,11.27-3.28,21.54-8.87,30.57-5.95,9.6-12.42,19.32-19.25,28.87l-.83,1.16-12.99,4.54-1.61,4.3-9.2,10.04-4.37.55-4.1,11.14-27.98,32.64h0Zm53.47-176.11l6.55,18.83-.22,1.17c-4.58,24.7-11.53,49.05-20.68,72.37-7.17,18.26-15.39,35.98-24.52,52.87l5.48-6.4,5.44-14.76,6.53-.82,5.79-6.31,2.48-6.6,14.27-4.99c6.4-9.02,12.49-18.17,18.09-27.21,5.39-8.72,7.92-18.87,7.51-30.17l-.17-4.66h2.89v-8.18h9.03l1.62-7.71-7.2-12.73-27.94-9.98-4.95-4.7v-.02Z"/>
    </g>
    <g>
      <path class="cls-1" d="m877.16,728.93l-27.26-19.08-10.9-29.3-45.65-2.72c-19.99,1.82-38.96,6.25-56.9,13.29-17.95,7.05-36.91,10.56-56.9,10.56l-5.45,13.63-10.9,2.73c-3.64-1.81-7.16-4.09-10.56-6.81-3.41-2.72-5.11-6.81-5.11-12.27l-8.18-4.77c-5.45-7.26-10-14.08-13.63-20.44-3.64-6.36-4.55-14.08-2.73-23.17,7.26-18.17,12.71-37.59,16.35-58.26,3.63-20.66,5.45-41.91,5.45-63.71-1.82-14.07-5-27.48-9.54-40.2-4.55-12.71-10.46-24.53-17.72-35.43l-38.16-42.93h8.18c9.08,9.09,19.53,16.69,31.34,22.83,11.81,6.13,23.17,11.92,34.07,17.38v5.45l26.58,19.08,2.73,21.81-2.73,13.63h10.9c19.98-5.45,39.41-9.99,58.26-13.63,18.85-3.63,39.18-6.36,60.99-8.18,5.45,1.82,11.69,2.72,18.74,2.72s10.56,4.55,10.56,13.63c-24.99,7.27-50.08,13.06-75.3,17.38-25.21,4.32-51.45,8.29-78.7,11.92l-5.45,13.63,2.73,43.61-8.18,64.73,19.08,2.73c19.98-3.63,40.77-6.81,62.35-9.54,21.57-2.72,44.17-3.17,67.8-1.36l8.18,2.73,15.67-5.45,5.45-173.08-5.45-91.99h-5.45l-12.95,13.63-43.61,5.45-67.46-10.9c23.17-9.08,47.46-15.44,72.91-19.08,25.43-3.63,50.65-7.26,75.64-10.9l35.43,13.63v2.72l26.58,10.9,5.45,13.63c-17.72,46.79-27.03,97.22-27.94,151.27-.92,54.07-4.09,107.22-9.54,159.45l2.73,8.18-2.73,8.18-19.08,2.72v-.03Z"/>
      <path class="cls-1" d="m876.41,732.06l-28.99-20.29-10.55-28.35-43.48-2.59c-19.53,1.8-38.32,6.2-55.85,13.07-17.59,6.91-36.41,10.52-55.96,10.76l-5.27,13.18-13.46,3.37-.99-.49c-3.77-1.87-7.5-4.28-11.1-7.16-3.75-3-5.83-7.32-6.18-12.85l-7.27-4.24-.36-.48c-5.51-7.34-10.17-14.32-13.83-20.75-3.99-6.96-5.02-15.46-3.06-25.24l.16-.52c7.15-17.89,12.6-37.3,16.19-57.67,3.58-20.35,5.39-41.54,5.4-63-1.79-13.72-4.94-26.97-9.36-39.39-4.42-12.36-10.23-24.01-17.27-34.61l-42.46-47.77h16.1l.88.88c8.81,8.82,19.11,16.32,30.6,22.29,11.65,6.05,23.1,11.89,34.03,17.36l1.66.83v5.76l26.39,18.95,2.95,23.59-2.1,10.52h6.84c19.76-5.38,39.3-9.94,58.09-13.57,18.87-3.64,39.5-6.4,61.31-8.22l.61-.05.58.2c5.11,1.71,11.1,2.57,17.79,2.57,5.06,0,13.56,2.16,13.56,16.63v2.25l-2.16.63c-24.98,7.27-50.43,13.14-75.63,17.45-24.49,4.2-50.41,8.14-77.07,11.71l-4.55,11.37,2.7,43.22-.04.28-7.81,61.81,15.68,2.24c19.85-3.6,40.71-6.79,62.03-9.48,21.64-2.73,44.65-3.19,68.4-1.38l.37.03,7.56,2.52,12.76-4.44,5.38-170.88-5.28-89.03h-1.33l-12.8,13.47-45.1,5.64-.42-.07-78.29-12.66,10.22-4c23.28-9.12,48.03-15.6,73.58-19.25,27.02-3.86,51.76-7.42,75.63-10.9l.78-.11,38.09,14.65v2.77l25.89,10.62,6.36,15.89-.41,1.09c-17.51,46.26-26.85,96.81-27.74,150.26-.91,53.75-4.1,107.27-9.49,159.07l2.84,8.51-3.63,10.88-22.09,3.15-.03-.03Zm-24.02-24.14l25.52,17.86,16.07-2.29,1.82-5.47-2.61-7.84.07-.65c5.41-51.83,8.61-105.38,9.52-159.19.9-53.72,10.23-104.58,27.72-151.19l-4.55-11.37-27.26-11.19v-2.68l-32.78-12.61c-23.63,3.44-48.13,6.98-74.87,10.79-21.24,3.04-41.92,8.06-61.62,14.96l55.8,9.02,42.12-5.27,13.09-13.79h9.57l5.63,94.95v.14l-5.52,175.14-18.58,6.46-8.79-2.93c-23.22-1.75-45.7-1.29-66.83,1.38-21.38,2.7-42.3,5.91-62.19,9.52l-.48.09-22.48-3.22,8.51-67.38-2.75-44,6.35-15.88,1.74-.23c27.2-3.62,53.64-7.63,78.59-11.91,24.22-4.14,48.67-9.74,72.72-16.65-.57-7.34-4.06-8.4-7.48-8.4-7.08,0-13.5-.9-19.09-2.68-21.37,1.8-41.58,4.52-60.07,8.08-18.76,3.62-38.29,8.19-58.04,13.57l-.39.11h-14.96l3.35-16.74-2.5-20.02-26.76-19.21v-5.14c-10.46-5.24-21.37-10.81-32.45-16.57-11.66-6.05-22.15-13.62-31.2-22.49h-.26l33.86,38.09.12.17c7.36,11.05,13.43,23.19,18.05,36.09,4.59,12.88,7.85,26.62,9.69,40.83l.02.38c0,21.87-1.85,43.48-5.5,64.23-3.64,20.68-9.17,40.39-16.42,58.6-1.6,8.21-.78,15.21,2.44,20.82,3.47,6.08,7.86,12.68,13.06,19.65l9.14,5.33v1.72c0,4.53,1.3,7.78,3.98,9.92,2.95,2.36,5.99,4.37,9.05,5.97l8.32-2.08,5.63-14.09h2.03c19.53,0,38.3-3.48,55.8-10.35,18.12-7.11,37.54-11.65,57.72-13.48l.23-.02h.23l47.61,2.85,11.26,30.26v.03Z"/>
    </g>
  </g>
  <g>
    <path class="cls-1" d="m356.56,556.48l-5.78,1.22c0-.91,3.96-3.96,6.7-6.39.61-.61,1.52-.61.91.61l-1.83,4.57h0Zm140.63,36.82c3.96,2.13-1.52,11.26-4.87,17.66-4.57,8.52-9.13,25.26-13.7,25.26-8.22-4.87-26.18-16.74-26.18-30.14,0-18.26,13.39-45.96,22.53-62.71l-1.52-2.74c-7.31,0-33.48,3.65-36.22,3.65-.91-1.22-2.43-2.13-3.96-2.13-4.87,0-7.3,3.65-9.13,8.22-5.78,14-15.52,49.92-18.57,63.92-6.39,0-7.91-3.35-11.57-7-.3.3-.91.61-1.52.61h-1.52c-1.22,0-2.13-.61-3.35-.91l1.52-3.65c-18.26-11.87-8.22-23.13-4.57-46.88-7-1.52-16.74-.3-24.66-.3,3.35-6.09,9.74-7.31,15.22-10.05l-4.87-2.74,17.66-7.31c1.83-4.57,4.26-6.7,6.39-10.96,5.48-10.05,7.31-24.05,12.78-34.4,14.31-27.09,33.48-56.62,42.92-80.36,1.22-.91.3-2.44,4.26-2.44,16.13,0,14.92,9.44,23.74,17.66.3,10.35,2.43,17.66-2.13,33.18h-2.13c-3.04,9.74-14,24.66-20.4,38.05-5.78,2.74-9.44,8.83-9.44,14.31l6.39-1.83c8.52-10.05,20.7-11.26,32.57-11.26,3.96,0,10.05,1.83,14.61,3.35,18.87-23.44,30.74-50.53,44.75-77.32,1.22-2.13,3.96-3.65,7-3.65,10.65,0,14.61,15.52,14.61,27.09,0,7-.91,15.22-5.78,18.87-.91,8.52-3.96,16.74-10.96,20.7,2.43,5.78-7,17.05-11.57,25.27-3.96-1.22-9.13,3.04-11.26,6.7-2.13,3.65-5.78,10.65-8.52,16.44-.61,1.22,1.83,2.74,3.35-.3l3.65-7.61c1.52-3.04,4.26-5.48,7-5.18-9.74,17.35-14.31,35.01-26.18,52.05l-3.35-1.22c-1.22-.61-3.96,1.22-5.17,3.04-1.22,2.13-3.65,5.78-6.09,10.04-2.74,4.26,0,11.57.3,14.61-2.13,3.65-6.39,6.7-6.39,10.65,2.13,4.57,7.61-4.26,14.31-18.26l.02.02Zm-80.97-39.27l2.74.91,3.35-9.13c-2.74,0-4.57,4.26-6.09,8.22h0Zm40.79,9.44l3.35,1.22c-1.83,8.22-6.09,10.96-6.7,10.96l3.35-12.18Zm23.44,36.83l-3.04,6.09,1.83,2.44,5.18-10.35c-.91,0-3.04,0-3.96,1.83h0Zm14.31-11.88c-.61,1.22-1.52,1.22-1.52.3l-.3-3.35,4.57-6.7c.61-.91,1.52-1.52,2.13-.91l.91.91-5.78,9.74h-.01Zm17.66-45.04l-12.48,24.35c3.65-.3,6.39-5.48,8.22-9.44l8.22-16.74c-1.22-.3-3.35.61-3.96,1.83h0Z"/>
    <path class="cls-1" d="m624.56,517.22h-2c-4.91,6.9-7.81,19.62-16.17,24.16l.73,2.18-7.09,4c-7.09,10.17-10.17,22.71-14.17,33.06-.54,1.45-2.91,4.36-.54,5.09.54.18,1.82-3.63,2-4.18,4.18-9.45,7.27-23.62,13.81-31.06,2.54-.91.73,1.27.36,1.82-6.36,10.72-9.45,23.07-14.72,35.79-3.63,8.54-4.9,16.35-4,19.98-3.27-1.09-6.18-2.36-9.08-4v-5.81c-1.27,1.09-1.82,2.36-2,4.36-4.18-3.09-7.63-7.27-9.99-13.63,0-32.7,33.79-77.39,46.87-101.38,1.09-1.45,3.45-2.54,5.45-2.54,1.82,0,3.63.73,5.63,1.27v4.36c3.63,1.45,6.54,5.63,6.54,9.63,0,4.91-.73,11.45-1.63,16.9h0Zm-42.51,72.49l-2,4.91c-.18.54.36,2.36,1.45.54l2.54-6.36c-2.54-2.54-1.82.36-2,.91h.01Z"/>
    <path class="cls-1" d="m702.86,494.88c6.54,1.64,9.81,7.45,9.27,14.35.91.73,1.27,1.63,1.27,2.54,0,3.82-6.18,8.9-13.08,10.36-3.82-4.91,2.18-5.09.36-7.08-18.35,0-27.62,3.63-43.42,14.9v2.72l7.63,5.45c7.81,5.45,15.44,7.99,20.89,13.99l2-1.27c5.27,5.63,8.36,12.53,7.99,17.26l-1.09,14.53-3.09-.73c-5.27,7.27-15.81,13.81-26.53,18.53-5.63-2.36-8.72-1.45-8.54,3.45-8.72,3.27-16.53,4.91-19.8,4.91-2.54,0-6.9-2.91-11.27-7.08-7.27-1.45-8.9-5.81-7.99-9.08-2.36-3.27-4-6.36-4-8.36,0-4.54,3.09-7.27,6-9.45,3.09,2.54,7.81,8.9,11.08,8.9,8.54,0,25.44-4.91,37.06-15.08v-1.82c-4.54-4.36-8.18-12.35-11.45-10.17-4.91-6.54-7.09-9.27-10.36-6.9-2.54-2.18-7.45-6.54-8.36-11.63-1.09-5.81-3.27-12.54-3.09-16.35,1.09-14.9,30.52-29.8,53.59-29.8,4.54,0,10.54.18,15.08.73l-.18,2.18h.03Zm-48.51,105.74l-6.36,2.72.91,1.27,5.45-1.82v-2.18h0Zm16.35-81.56c-6.54,2-13.26,4.72-13.45,7.63l13.45-7.45v-.18Zm35.43,2.91l4.54-3.09c0,2.18-.54,2.36-2.91,4.36l-1.63-1.27h0Z"/>
    <path class="cls-1" d="m794.06,565.73c-1.45,3.09-.91,11.08-4.72,14.72,2.54,1.45,1.09,5.99-1.27,8.17,1.09,2.72,1.82,4.72-2,9.81-.18.73,1.64-.18,2-.54-.36,6.18-1.82,11.08-3.63,16.53-5.63,0-10.72-5.45-13.63-4.36.18-3.63-.36-5.09-2.91-5.09l.18-2.54c.91,0,1.63-.55,1.82-1.82-.91,0-1.63-.55-1.63-1.82.36-4.18,2.54-9.45,3.63-14.9,1.27,0,1.27,2.36,1.09,5.09,1.27,0,3.27-7.45,3.63-11.63l-2.18-.91c-.18,2.91-.18,6.9-2.36,6,.54-2.54,1.09-8.9,1.63-11.08l3.09,3.82c-.18-2.18.73-2.72.36-5.45-10.36-.36-37.79,14.35-45.96,19.98l-.91,2.36.73,2.18c-3.09,6.36-5.81,13.81-8.72,17.62l-11.45-4.91c-.54-5.63-8.36-7.99-6.36-12.72h-2.91c4-27.43,34.34-56.86,51.41-79.75,8.54-11.26,17.08-18.89,24.16-24.53,1.27-1.09,6.36.73,6.72-2.73,2.36.73,7.45,2.91,10.17,5.09l-3.27,1.09c-.18,3.09,4.36-.36,5.27.36,6.72,5.81,2.91,15.62,6.36,20.89.18.91-.18,16.53-2.9,18.17.36.36.54.36,1.09.73-1.09,4-2.54,9.26-2.91,14.35-.18,2.18,6.72,8.36,6.18,16.35-3.27.36-6.72,1.09-9.81,1.45v.02Zm-57.58,14.53c-.91,1.27-1.27,2-2,3.27l13.81-7.27c-2.36-1.82-8.36,2.18-11.81,4Zm7.81-7.63c-1.45.54-2.54.73-3.82,1.27l-2.18,3.09c.73-.36,4.91-1.82,5.99-4.36h.01Zm44.33-62.13c-3.45.18-11.81,10.36-19.62,20.71l-.91-.91c.54-1.45,1.09-2.54.36-3.27-2.91,3.27-4.18,4.91-2.54,8.36-2.72,3.63-5.27,6.9-7.63,9.81-3.27,4.18-8.18,11.99-12.35,17.98,3.63-2.18,6.36-5.99,13.63-9.08,6.36-2.72,10.17-3.45,16.71-5.27.54-4.72,2.36-8.18,3.09-10.72l3.09,2.72c2.18-5.63,4.72-20.35,6.72-28.52l-.54-1.82h-.01Zm-31.79,61.42v-.18c-4,.18-5.63.54-6.36,3.45,1.63-.91,4.36-2,6.36-3.27Zm15.99,18.35l-.73,2.36h1.09l.73-2.91-1.09.54h0Zm5.63-43.77c-.73,2.18.55,2.18,1.82,2l.18-2h-2Zm1.64-2.91l-.73-.18-.73,2h1.63l-.18-1.82h0Zm5.27-22.35h-1.63l1.45-4.91,1.64-.73-1.45,5.63h-.01Z"/>
    <path class="cls-1" d="m930.68,497.6c2-1.27,5.63-2.18,9.45-2.36,6.54-.18,11.63.73,14.72,2.91l-3.63,2.54.36.73c1.27,0,4.72-1.09,5.81-1.82l5.09,5.45c-9.45,4.36-26.34,16.9-35.61,29.61-1.09,1.45-1.82-.73-2.91,0-.36,6.54-4.18,9.99-8.54,16.9-.91,1.64-.55,4-1.64,6.54,0,1.09-2.72,2.18-3.27,3.82-4.54,13.99-10.72,28.52-16.53,43.42l-8.18-3.82-1.09,2.54c-11.63-3.09-12.72-7.63-14.35-19.8-.54-4.72.91-12.9-.36-16.9-4.36-12.72-.18-18.17-1.27-27.43l-.91-7.08c-5.63,1.82-11.99,7.27-16.71,15.81l.55,2.91c-9.08,17.08-17.26,40.69-25.44,51.6h-5.09c-5.27,0-8.17-12.17-10.35-13.26l-1.09-7.99c-.91-5.63.73-7.63,2-11.08,12.9-31.25,33.61-50.14,47.96-64.86,5.45,2,20.35,11.26,22.89,17.99,2.18,5.45,4.36,16.9,6.18,24.34,12.36-21.44,30.52-48.14,34.52-49.6l3.82-.55c-11.27,11.08-19.26,24.16-23.62,30.52-1.63,2.72-2.36,3.82-2,4l1.09.73c5.27-8.18,17.44-25.44,28.16-35.79v-.02Zm-71.95,12.72l-4,4.18c2.18,1.82,4.18-1.82,5.45-3.09l-1.45-1.09Zm54.14,57.77l-1.63-1.09c.18-2.54.36-5.99,2.54-5.09l-.91,6.18h0Zm14.35-42.15c-1.45,2.18-4.36,6-2.54,6.9l3.82-5.81c.36-.55-.91-1.64-1.27-1.09h-.01Zm-.91-19.26l3.09-4-1.45-.73c-.91.73-2,2-3.09,3.82.18.36.73,1.09,1.45.91Zm5.63,12.9l-3.63,4.72c1.09-.18,1.45.18,1.63.91l3.27-4.72c.36-.36-.36-2-1.27-.91Zm13.81-15.08l.36,1.63c1.82-1.27,3.45-1.45,3.09-4.18l-3.45,2.54h0Z"/>
    <path class="cls-1" d="m1009.16,517.22h-2c-4.91,6.9-7.81,19.62-16.17,24.16l.73,2.18-7.08,4c-7.09,10.17-10.17,22.71-14.17,33.06-.54,1.45-2.91,4.36-.54,5.09.54.18,1.82-3.63,2-4.18,4.18-9.45,7.27-23.62,13.81-31.06,2.54-.91.73,1.27.36,1.82-6.36,10.72-9.45,23.07-14.71,35.79-3.63,8.54-4.91,16.35-4,19.98-3.27-1.09-6.18-2.36-9.08-4v-5.81c-1.27,1.09-1.82,2.36-2,4.36-4.18-3.09-7.63-7.27-9.99-13.63,0-32.7,33.79-77.39,46.87-101.38,1.09-1.45,3.45-2.54,5.45-2.54,1.82,0,3.63.73,5.63,1.27v4.36c3.63,1.45,6.54,5.63,6.54,9.63,0,4.91-.73,11.45-1.64,16.9h0Zm-42.51,72.49l-2,4.91c-.18.54.36,2.36,1.45.54l2.54-6.36c-2.54-2.54-1.82.36-2,.91h.01Z"/>
  </g>
</svg>