<svg width="135" height="63" viewBox="0 0 135 63" fill="none" xmlns="http://www.w3.org/2000/svg">
<path d="M69.4919 62.3464C66.5065 61.6436 63.4397 60.9394 60.2944 60.2351C57.1462 59.5323 54.1779 58.6041 51.3883 57.452V56.6843H50.6098V55.9167L49.15 56.0125L48.76 54.9561L47.5916 54.5716L45.6447 52.7476V51.98L44.8662 52.0758L43.6977 49.8687L42.6264 49.1011L40.9723 46.5095L39.901 46.6052C38.0184 44.1094 36.0572 41.7108 34.0132 39.4065C31.9691 37.1036 29.6479 35.1205 27.054 33.4557L26.0812 34.8951L25.6927 34.9909L25.3027 36.5261L24.1343 37.2938L22.7716 40.1727L21.6032 40.5558L20.9218 43.5305L19.462 45.5461H18.6835V46.6024H17.6122L17.3208 48.8095H16.5423L13.9141 53.4167C11.5129 54.1843 9.24175 55.2083 7.10057 56.4886C4.95939 57.7689 2.65537 58.6956 0.189941 59.2717L1.7469 58.7914L1.64977 58.0238L3.88808 57.2562V56.5843L7.29483 54.1843C9.24175 51.7532 11.0572 49.2743 12.7456 46.7461C14.4326 44.2193 16.021 41.7079 17.5151 39.2121H18.2936C20.8875 33.9021 23.273 28.5105 25.447 23.0399C27.6196 17.5694 29.3894 11.9552 30.7521 6.19588C29.5194 6.26067 28.2695 6.11701 27.0054 5.76348C25.7398 5.41277 24.6842 4.75642 23.8415 3.79583H24.2314L26.8597 4.08316C28.351 3.0606 29.9251 2.53242 31.5806 2.50003C33.2347 2.46904 34.9388 2.29298 36.69 1.97185L42.0436 3.41132V4.08316H42.4336L42.8236 6.38603L40.5852 7.05787V8.59312L39.5139 9.45652L39.6111 10.1284H38.8326L38.4441 11.6636H37.5685C36.9185 14.351 35.8001 16.9581 34.2103 19.4849C32.619 22.0131 31.3392 24.6526 30.365 27.4034L29.2937 27.7879L29.0023 30.3795C30.755 30.5711 32.3748 31.0359 33.8689 31.7711C35.3616 32.5077 36.7885 33.4838 38.1512 34.6979L38.5412 35.8501H39.3197L40.0982 37.6741L40.7795 37.9614L44.2834 41.3206L46.2303 43.0488L46.6188 44.5841L48.1758 46.0235L50.8041 47.0799L52.361 49.287L53.5295 50.0546L55.7678 51.7828V52.5504C56.9991 52.5504 58.1361 52.8378 59.1745 53.4138C60.2115 53.9899 61.25 54.4068 62.2899 54.6618V55.0463L71.6545 59.4238L77.0838 60.7098L69.4919 62.3408V62.3464ZM6.71204 25.5879L6.61491 24.4357C8.36756 21.4934 9.89024 18.3891 11.1901 15.1257C12.4871 11.8622 13.4613 8.50298 14.1098 5.04797L12.5528 0.633789H12.9427L14.8897 2.45778L18.9778 3.89724L20.2433 6.10433L19.8534 7.92832H18.6849V9.08046H18.295C18.3593 10.8087 17.9693 12.3439 17.1265 13.6876C16.2824 15.0313 15.3739 16.375 14.4011 17.7187L12.4542 18.3905L12.1628 19.1581L11.0915 20.3103L10.313 20.4061L9.6317 22.23L6.71204 25.5893V25.5879Z" fill="#FBFBFB"/>
<path d="M69.4848 62.9958L69.3419 62.962C66.4209 62.2746 63.3284 61.5648 60.1516 60.8521C56.9848 60.145 53.9523 59.1971 51.1398 58.0351L50.7455 57.8717V57.3168H49.967V56.5928L48.7101 56.6759L48.2615 55.4604L47.2531 55.128L45.0033 53.0195V52.6969L44.5034 52.7589L43.1993 50.2927L42.1508 49.5405L40.6396 47.1743L39.6025 47.2673L39.3868 46.9827C37.5185 44.5066 35.5487 42.0981 33.5304 39.8234C31.6777 37.7361 29.5623 35.8909 27.234 34.3332L26.4784 35.4501L26.2227 35.5135L25.867 36.9177L24.6414 37.7234L23.2373 40.6896L22.1503 41.046L21.5204 43.7982L19.792 46.1827H19.3249V47.2391H18.1765L17.8851 49.4462H16.918L14.3512 53.9463L14.1126 54.0223C11.7729 54.7702 9.52604 55.7829 7.43485 57.0323C5.24939 58.3393 2.86252 59.3013 0.339961 59.8901L0 58.6689L1.04417 58.3464L0.948461 57.5957L3.24677 56.8069V56.2604L6.84778 53.7237C8.74898 51.3462 10.5531 48.8828 12.21 46.401C13.8755 43.9052 15.4753 41.3798 16.9623 38.8938L17.1494 38.5826H17.8908C20.3991 33.4261 22.7402 28.1232 24.85 22.8132C26.9026 17.6455 28.6138 12.2777 29.938 6.84663C28.9124 6.8255 27.871 6.66776 26.8312 6.37902C25.4499 5.99591 24.28 5.26772 23.3559 4.217L22.436 3.16768L24.3029 3.1719L26.6955 3.43388C28.2281 2.43104 29.8665 1.90568 31.5678 1.87187C33.1819 1.84089 34.8659 1.66764 36.5729 1.35496L36.7172 1.3282L42.6865 2.93387V3.45642H42.9779L43.5492 6.83818L41.2266 7.53538V8.90161L40.201 9.72979L40.3525 10.7707H39.334L38.9455 12.3059H38.0699C37.3914 14.8792 36.2786 17.4074 34.756 19.8286C33.199 22.3019 31.9263 24.9245 30.9721 27.6217L30.8721 27.9063L29.8894 28.2584L29.7108 29.8415C31.2892 30.0767 32.7819 30.5373 34.156 31.2134C35.6944 31.9725 37.1828 32.9895 38.5827 34.2374L38.7084 34.3487L39.004 35.2247H39.7468L40.591 37.2008L41.1438 37.4346L44.7248 40.8671L46.8088 42.7164L47.2002 44.2587L48.5329 45.4897L51.2269 46.5715L52.8239 48.8349L53.9294 49.5645L56.4149 51.4828V51.9505C57.5119 52.0364 58.5461 52.3448 59.4931 52.8702C60.4787 53.4167 61.4729 53.8153 62.4485 54.0547L62.9355 54.1744V54.6533L71.8731 58.8309L79.9664 60.7478L69.4891 63L69.4848 62.9958ZM52.0297 57.0266C54.6622 58.0872 57.4876 58.9577 60.4344 59.6154C63.5655 60.3168 66.6123 61.0169 69.4962 61.6943L74.2028 60.683L71.4374 60.0281L61.6443 55.4505V55.1491C60.7158 54.8787 59.7802 54.4829 58.8574 53.9702C57.9218 53.4519 56.8805 53.1885 55.7664 53.1885H55.1236V52.0955L53.151 50.573L51.9025 49.7518L50.3841 47.5997L47.8216 46.5701L46.0389 44.9221L45.6518 43.3939L43.8335 41.7798L40.4153 38.5023L39.6054 38.16L38.8912 36.4881H38.0756L37.5928 35.0628C36.3158 33.9416 34.9659 33.0275 33.579 32.343C32.1577 31.6444 30.5936 31.1965 28.9295 31.0148L28.291 30.9444L28.6981 27.3316L29.858 26.9161C30.8321 24.2315 32.1105 21.623 33.6618 19.1568C35.2073 16.7004 36.3101 14.1313 36.94 11.5228L37.0571 11.0355H37.9384L38.327 9.50021H38.8669L38.8226 9.19739L39.9382 8.29737V6.5931L42.0922 5.94661L41.8851 4.72123H41.398V3.90009L36.66 2.62541C34.9331 2.93387 33.229 3.1057 31.5906 3.1381C30.0722 3.16908 28.6038 3.66346 27.224 4.60855L27.0254 4.74377L25.8441 4.61419C26.2555 4.84377 26.7012 5.02546 27.1768 5.15645C28.3696 5.48885 29.5594 5.62548 30.7164 5.56632L31.5706 5.52125L31.3764 6.3424C30.0137 12.1017 28.2196 17.7976 26.0441 23.2738C23.8729 28.7359 21.4589 34.1923 18.8707 39.4896L18.695 39.8488H17.8793C16.4338 42.2517 14.8883 44.6883 13.2799 47.0968C11.5858 49.6335 9.74172 52.1519 7.79624 54.5787L7.7391 54.6491L4.52805 56.9111V57.1238C5.2951 56.7717 6.04073 56.3801 6.7635 55.9477C8.86754 54.69 11.1244 53.6632 13.4727 52.8927L16.1624 48.1771H16.7523L17.0437 45.97H18.0365V44.9137H19.1263L20.3191 43.2672L21.0518 40.0685L22.3017 39.6572L23.623 36.8642L24.7343 36.1346L25.1571 34.4684L25.6799 34.3402L26.8683 32.5824L27.4011 32.9247C30.0379 34.6163 32.4234 36.6557 34.4931 38.9896C36.4558 41.2023 38.3741 43.539 40.1982 45.9419L41.3023 45.8433L43.1007 48.6602L44.1934 49.4434L45.2247 51.3927L46.2832 51.2617V52.4758L47.9259 54.0153L49.2528 54.4519L49.5828 55.3477L51.2469 55.2379V56.0491H52.0254V57.0266H52.0297ZM6.19928 27.1513L5.95788 24.2879L6.06072 24.1146C7.78338 21.2216 9.30749 18.1201 10.5916 14.8947C11.8472 11.7369 12.8085 8.44103 13.447 5.0973L11.6486 0H13.1985L15.2325 1.90568L19.4177 3.37895L20.9204 6.00013L20.3733 8.56075H19.3263V9.71289H18.9392C18.8949 11.3003 18.4707 12.7468 17.6722 14.0186C16.8223 15.3708 15.8982 16.7398 14.9226 18.0849L14.804 18.2483L12.9485 18.8877L12.7185 19.4934L11.4044 20.9075L10.7802 20.985L10.1945 22.554L6.19785 27.1513H6.19928ZM13.837 2.34653L14.7726 4.9987L14.7411 5.1635C14.0869 8.64245 13.0942 12.0721 11.7872 15.3567C10.763 17.9286 9.58889 20.4244 8.28475 22.8033L9.06752 21.9019L9.84457 19.823L10.7773 19.7075L11.6044 18.8187L11.9586 17.8891L13.9969 17.1863C14.9111 15.9158 15.781 14.6271 16.5809 13.3538C17.3508 12.1256 17.7122 10.696 17.6537 9.10443L17.6294 8.44808H18.0422V7.29594H19.332L19.5634 6.21L18.535 4.417L14.544 3.01134L13.837 2.34935V2.34653Z" fill="#FBFBFB"/>
<path d="M115.91 55.6644L112.016 52.977L110.459 48.8501L103.938 48.467C101.083 48.7234 98.373 49.3473 95.8104 50.3389C93.2465 51.3319 90.5382 51.8263 87.6828 51.8263L86.9043 53.746L85.3474 54.1305C84.8274 53.8756 84.3246 53.5545 83.839 53.1714C83.3519 52.7883 83.1091 52.2122 83.1091 51.4432L81.9406 50.7713C81.1621 49.7488 80.5122 48.7882 79.9937 47.8924C79.4738 46.9966 79.3438 45.9092 79.6037 44.6289C80.6408 42.0697 81.4193 39.3344 81.9392 36.4231C82.4577 33.5132 82.7177 30.5202 82.7177 27.4497C82.4577 25.4679 82.0035 23.5792 81.355 21.7876C80.7051 19.9974 79.8609 18.3326 78.8238 16.7973L73.373 10.7507H74.5415C75.8385 12.031 77.3312 13.1015 79.0181 13.9663C80.7051 14.8297 82.3277 15.6452 83.8847 16.4142V17.1818L87.6814 19.8692L88.0713 22.9411L87.6814 24.8609H89.2383C92.0923 24.0933 94.8677 23.4538 97.5602 22.9411C100.253 22.4298 103.157 22.0453 106.272 21.789C107.051 22.0453 107.942 22.1721 108.949 22.1721C109.956 22.1721 110.457 22.8129 110.457 24.0918C106.888 25.1158 103.304 25.9313 99.7014 26.5398C96.1004 27.1483 92.3523 27.7074 88.4599 28.2187L87.6814 30.1385L88.0713 36.2808L86.9029 45.3979L89.6283 45.7825C92.4823 45.2712 95.4519 44.8233 98.5344 44.4388C101.615 44.0557 104.844 43.9923 108.219 44.2472L109.387 44.6317L111.626 43.8641L112.404 19.4861L111.626 6.52947H110.847L108.997 8.44924L102.768 9.21686L93.1322 7.68162C96.4418 6.40271 99.9114 5.50692 103.547 4.99423C107.179 4.48295 110.782 3.97167 114.351 3.45898L119.412 5.37875V5.76185L123.209 7.2971L123.987 9.21686C121.456 15.8071 120.126 22.9101 119.996 30.523C119.865 38.1386 119.412 45.6247 118.633 52.9812L119.023 54.1334L118.633 55.2855L115.908 55.6686L115.91 55.6644Z" fill="#FBFBFB"/>
<path d="M115.802 56.1055L111.661 53.2476L110.154 49.2546L103.944 48.8898C101.154 49.1433 98.4701 49.7631 95.9661 50.7307C93.4535 51.7039 90.7653 52.2124 87.9727 52.2462L87.2199 54.1026L85.2973 54.5773L85.1559 54.5082C84.6174 54.2448 84.0846 53.9054 83.5704 53.4998C83.0347 53.0772 82.7376 52.4688 82.6876 51.6899L81.6492 51.0927L81.5977 51.0251C80.8107 49.9912 80.1451 49.0081 79.6223 48.1025C79.0523 47.1222 78.9052 45.9249 79.1852 44.5474L79.208 44.4742C80.2293 41.9544 81.0078 39.2206 81.5206 36.3515C82.032 33.4852 82.2905 30.5007 82.292 27.4781C82.0363 25.5456 81.5863 23.6794 80.955 21.93C80.3236 20.1892 79.4937 18.5483 78.4881 17.0553L72.4231 10.327H74.7228L74.8485 10.4509C76.107 11.6932 77.5782 12.7495 79.2194 13.5904C80.8835 14.4425 82.5191 15.2651 84.0803 16.0355L84.3174 16.1524V16.9637L88.087 19.6328L88.5084 22.9554L88.2084 24.4371H89.1854C92.008 23.6794 94.7991 23.0371 97.483 22.5258C100.178 22.0131 103.125 21.6244 106.241 21.3681L106.328 21.361L106.411 21.3892C107.14 21.63 107.996 21.7512 108.952 21.7512C109.674 21.7512 110.889 22.0554 110.889 24.0935V24.4104L110.58 24.4991C107.012 25.5231 103.377 26.3499 99.7771 26.9569C96.2789 27.5485 92.5765 28.1034 88.7683 28.6062L88.1184 30.2077L88.5041 36.2951L88.4984 36.3346L87.3828 45.0404L89.6225 45.3559C92.4579 44.8489 95.4376 44.3996 98.4829 44.0207C101.574 43.6362 104.861 43.5714 108.253 43.8263L108.306 43.8305L109.386 44.1855L111.209 43.5601L111.977 19.492L111.223 6.95224H111.033L109.205 8.84946L102.762 9.64385L102.702 9.63399L91.5194 7.85085L92.9793 7.28746C96.3046 6.00292 99.8399 5.09022 103.489 4.57613C107.349 4.03245 110.883 3.53103 114.293 3.04088L114.404 3.02539L119.845 5.08882V5.47896L123.543 6.97477L124.451 9.21285L124.393 9.36638C121.892 15.882 120.557 23.0019 120.43 30.5302C120.3 38.1008 119.845 45.639 119.075 52.935L119.48 54.1336L118.962 55.666L115.807 56.1097L115.802 56.1055ZM112.371 52.7054L116.017 55.2209L118.312 54.8984L118.572 54.1279L118.199 53.0237L118.209 52.9321C118.982 45.632 119.439 38.0896 119.569 30.5105C119.698 22.9441 121.03 15.7806 123.529 9.21567L122.879 7.61422L118.985 6.03813V5.66066L114.303 3.88456C110.927 4.36908 107.428 4.86768 103.608 5.40431C100.574 5.83249 97.6202 6.53955 94.8062 7.5114L102.777 8.78186L108.793 8.03958L110.663 6.09729H112.03L112.834 19.4708V19.4905L112.046 44.1587L109.392 45.0686L108.136 44.6559C104.819 44.4094 101.608 44.4742 98.5901 44.8503C95.5361 45.2306 92.5479 45.6827 89.7068 46.1911L89.6382 46.2038L86.4272 45.7503L87.6428 36.2599L87.2499 30.0626L88.157 27.826L88.4055 27.7935C92.2908 27.2837 96.0675 26.7189 99.6314 26.1161C103.091 25.5329 106.583 24.7442 110.019 23.7709C109.937 22.7371 109.439 22.5878 108.95 22.5878C107.939 22.5878 107.022 22.461 106.223 22.2103C103.171 22.4639 100.284 22.847 97.643 23.3484C94.9633 23.8582 92.1737 24.5019 89.3526 25.2597L89.2968 25.2752H87.16L87.6385 22.9174L87.2814 20.0976L83.459 17.3919V16.6679C81.9648 15.9299 80.4065 15.1454 78.8238 14.3341C77.1583 13.482 75.6599 12.4157 74.3672 11.1664H74.33L79.1666 16.5313L79.1837 16.5553C80.235 18.1116 81.1021 19.8215 81.762 21.6385C82.4176 23.4526 82.8833 25.3879 83.1461 27.3893L83.149 27.4428C83.149 30.5232 82.8847 33.5669 82.3634 36.4895C81.8434 39.4023 81.0535 42.1784 80.0179 44.7432C79.7894 45.8996 79.9065 46.8855 80.3665 47.6757C80.8621 48.532 81.4892 49.4616 82.232 50.4434L83.5375 51.1941V51.4363C83.5375 52.0744 83.7232 52.5321 84.106 52.8336C84.5274 53.166 84.9616 53.4491 85.3987 53.6744L86.5872 53.3814L87.3914 51.3969H87.6813C90.471 51.3969 93.1521 50.9067 95.6518 49.9391C98.2401 48.9377 101.014 48.2982 103.897 48.0405L103.929 48.0377H103.962L110.763 48.4391L112.371 52.7012V52.7054Z" fill="#FBFBFB"/>
<path d="M41.5466 31.3755L40.7209 31.5474C40.7209 31.4192 41.2866 30.9896 41.678 30.6473C41.7651 30.5614 41.8951 30.5614 41.808 30.7333L41.5466 31.3769V31.3755ZM61.6342 36.563C62.1999 36.863 61.4171 38.1489 60.9386 39.0503C60.2858 40.2504 59.6345 42.6082 58.9817 42.6082C57.8075 41.9222 55.2421 40.2504 55.2421 38.363C55.2421 35.7911 57.1548 31.8896 58.4603 29.5304L58.2432 29.1445C57.199 29.1445 53.4609 29.6586 53.0695 29.6586C52.9395 29.4867 52.7224 29.3586 52.5039 29.3586C51.8082 29.3586 51.4611 29.8727 51.1997 30.5164C50.3741 32.4882 48.9828 37.5475 48.5472 39.5194C47.6344 39.5194 47.4173 39.0475 46.8945 38.5334C46.8517 38.5757 46.7645 38.6193 46.6774 38.6193H46.4603C46.286 38.6193 46.156 38.5334 45.9818 38.4912L46.1989 37.9771C43.5906 36.3052 45.0247 34.7193 45.5461 31.3741C44.5462 31.16 43.1549 31.3319 42.0237 31.3319C42.5022 30.4741 43.4149 30.3023 44.1977 29.9163L43.5021 29.5304L46.0246 28.5008C46.286 27.8571 46.6331 27.5571 46.9374 26.9571C47.7201 25.5416 47.9815 23.5697 48.7629 22.1119C50.8069 18.2964 53.5452 14.1371 54.8936 10.7934C55.0679 10.6652 54.9364 10.4497 55.5021 10.4497C57.8061 10.4497 57.6333 11.7793 58.8931 12.9371C58.936 14.3949 59.2402 15.4245 58.5889 17.6104H58.2846C57.8504 18.9823 56.2849 21.0837 55.3707 22.9697C54.5451 23.3556 54.0223 24.2134 54.0223 24.9852L54.935 24.7275C56.152 23.312 57.8918 23.1415 59.5873 23.1415C60.153 23.1415 61.0229 23.3993 61.6742 23.6134C64.3696 20.3119 66.0651 16.4963 68.0663 12.723C68.2406 12.423 68.632 12.2089 69.0662 12.2089C70.5875 12.2089 71.1531 14.3949 71.1531 16.0245C71.1531 17.0104 71.0231 18.1682 70.3275 18.6823C70.1975 19.8823 69.7619 21.0401 68.762 21.5978C69.1091 22.4119 67.7621 23.9993 67.1093 25.1571C66.5437 24.9852 65.8052 25.5853 65.5009 26.1008C65.1967 26.6149 64.6753 27.6008 64.2839 28.4163C64.1968 28.5881 64.5453 28.8022 64.7624 28.374L65.2838 27.3022C65.5009 26.874 65.8923 26.5303 66.2837 26.5726C64.8924 29.0163 64.2396 31.5037 62.5441 33.9037L62.0656 33.7319C61.8913 33.646 61.5 33.9037 61.3271 34.1601C61.1529 34.4601 60.8058 34.9742 60.4572 35.5742C60.0658 36.1742 60.4572 37.2038 60.5001 37.632C60.1958 38.1461 59.5873 38.5757 59.5873 39.132C59.8916 39.7757 60.6743 38.532 61.6314 36.5601L61.6342 36.563ZM50.0684 31.0319L50.4598 31.16L50.9383 29.8741C50.5469 29.8741 50.2856 30.4741 50.0684 31.0319ZM55.8949 32.3615L56.3734 32.5333C56.112 33.6911 55.5035 34.077 55.4164 34.077L55.8949 32.3615ZM59.2431 37.5489L58.8088 38.4067L59.0702 38.7503L59.8102 37.2926C59.6802 37.2926 59.3759 37.2926 59.2445 37.5503L59.2431 37.5489ZM61.2871 35.877C61.2 36.0489 61.07 36.0489 61.07 35.9193L61.0272 35.4474L61.6799 34.5038C61.7671 34.3756 61.8971 34.2897 61.9842 34.3756L62.1142 34.5038L61.2886 35.8756L61.2871 35.877ZM63.8097 29.5318L62.027 32.9615C62.5484 32.9192 62.9398 32.1896 63.2012 31.6319L64.3753 29.2741C64.2011 29.2318 63.8968 29.36 63.8097 29.5318Z" fill="#D63241"/>
<path d="M79.8278 25.8456H79.5421C78.8408 26.8174 78.4266 28.609 77.2324 29.2485L77.3367 29.5555L76.324 30.1189C75.3112 31.5514 74.8713 33.3176 74.2999 34.7754C74.2228 34.9796 73.8842 35.3895 74.2228 35.4923C74.2999 35.5176 74.4827 34.981 74.5085 34.9036C75.1055 33.5725 75.5469 31.5767 76.4811 30.5288C76.8439 30.4006 76.5853 30.7077 76.5325 30.7851C75.624 32.295 75.1827 34.0345 74.4299 35.8261C73.9114 37.0289 73.73 38.129 73.8585 38.6402C73.3914 38.4867 72.9758 38.3078 72.5615 38.0769V37.2585C72.3801 37.4121 72.3016 37.5909 72.2759 37.8726C71.6788 37.4374 71.186 36.8487 70.8489 35.9529C70.8489 31.3471 75.6755 25.0526 77.5438 21.6737C77.6995 21.4694 78.0366 21.3159 78.3223 21.3159C78.5823 21.3159 78.8408 21.4187 79.1265 21.4948V22.1089C79.645 22.3131 80.0607 22.9019 80.0607 23.4653C80.0607 24.1568 79.9564 25.078 79.8278 25.8456ZM73.7557 36.0557L73.47 36.7472C73.4443 36.8233 73.5214 37.0796 73.6771 36.8233L74.0399 35.9275C73.6771 35.5698 73.78 35.9782 73.7542 36.0557H73.7557Z" fill="#D63241"/>
<path d="M91.0121 22.6994C91.9463 22.9304 92.4134 23.7487 92.3363 24.7206C92.4662 24.8234 92.5177 24.9502 92.5177 25.0783C92.5177 25.6164 91.6349 26.3319 90.6493 26.5375C90.1037 25.846 90.9607 25.8206 90.7007 25.5403C88.0796 25.5403 86.7555 26.0516 84.4986 27.639V28.0221L85.5885 28.7897C86.7041 29.5573 87.7939 29.9151 88.5724 30.7602L88.8581 30.5813C89.6109 31.3743 90.0522 32.3461 89.9994 33.0123L89.8437 35.0588L89.4023 34.956C88.6495 35.98 87.144 36.9011 85.6128 37.5659C84.8086 37.2335 84.3672 37.3617 84.3929 38.0519C83.1473 38.5124 82.0317 38.7434 81.5647 38.7434C81.2018 38.7434 80.5791 38.3336 79.9548 37.7462C78.9164 37.542 78.6836 36.9279 78.8135 36.4673C78.4764 36.0068 78.2422 35.5715 78.2422 35.2898C78.2422 34.6504 78.6836 34.2659 79.0992 33.9588C79.5406 34.3166 80.2148 35.2124 80.6819 35.2124C81.9018 35.2124 84.3158 34.5208 85.9756 33.0884V32.832C85.3271 32.2179 84.8071 31.0926 84.34 31.3996C83.6387 30.4785 83.3273 30.0939 82.8602 30.4278C82.4974 30.1207 81.7961 29.5066 81.6661 28.7897C81.5104 27.9714 81.199 27.0235 81.2247 26.4868C81.3804 24.3882 85.5842 22.2896 88.8795 22.2896C89.528 22.2896 90.3851 22.3149 91.0336 22.3924L91.0078 22.6994H91.0121ZM84.0829 37.5927L83.1745 37.9758L83.3045 38.1547L84.0829 37.8983V37.5913V37.5927ZM86.4184 26.1037C85.4842 26.3854 84.5243 26.7685 84.4972 27.1784L86.4184 26.1291V26.1037ZM91.4792 26.5136L92.1277 26.0784C92.1277 26.3854 92.0506 26.4108 91.712 26.6925L91.4792 26.5136Z" fill="#D63241"/>
<path d="M104.039 32.6782C103.832 33.1134 103.909 34.2388 103.365 34.7515C103.728 34.9557 103.521 35.5951 103.184 35.9022C103.339 36.2853 103.444 36.567 102.898 37.2839C102.872 37.3867 103.132 37.2586 103.184 37.2078C103.132 38.0783 102.924 38.7684 102.665 39.5361C101.861 39.5361 101.134 38.7684 100.718 38.922C100.744 38.4107 100.667 38.205 100.303 38.205L100.328 37.8473C100.458 37.8473 100.561 37.7698 100.588 37.591C100.458 37.591 100.355 37.5135 100.355 37.3346C100.407 36.7459 100.718 36.0036 100.874 35.236C101.055 35.236 101.055 35.5684 101.03 35.9529C101.211 35.9529 101.497 34.9036 101.548 34.3148L101.237 34.1867C101.211 34.5965 101.211 35.1585 100.9 35.0317C100.977 34.674 101.055 33.7782 101.132 33.4711L101.574 34.0092C101.548 33.7021 101.678 33.6261 101.625 33.2416C100.145 33.1909 96.2273 35.2627 95.0603 36.0557L94.9303 36.3881L95.0346 36.6952C94.5932 37.591 94.2047 38.6403 93.789 39.1769L92.1535 38.4853C92.0763 37.6924 90.9593 37.36 91.245 36.6937H90.8293C91.4007 32.8303 95.7345 28.6851 98.1728 25.4611C99.3926 23.8752 100.612 22.8005 101.624 22.0061C101.805 21.8526 102.532 22.1089 102.584 21.6216C102.921 21.7244 103.648 22.0314 104.036 22.3385L103.569 22.492C103.544 22.9272 104.192 22.4413 104.322 22.5427C105.282 23.3611 104.738 24.7428 105.231 25.485C105.256 25.6132 105.205 27.8133 104.816 28.0443C104.868 28.095 104.893 28.095 104.972 28.1471C104.816 28.7105 104.609 29.4513 104.556 30.1682C104.531 30.4753 105.516 31.3457 105.439 32.4711C104.972 32.5218 104.479 32.6246 104.038 32.6754L104.039 32.6782ZM95.813 34.7247C95.6831 34.9036 95.6316 35.0064 95.5274 35.1853L97.5 34.1613C97.1629 33.905 96.3058 34.4683 95.813 34.7247ZM96.9286 33.65C96.7215 33.7261 96.5658 33.7528 96.383 33.8289L96.0716 34.2641C96.1759 34.2134 96.7729 34.0078 96.9272 33.65H96.9286ZM103.261 24.8991C102.768 24.9245 101.574 26.3583 100.458 27.8161L100.328 27.6879C100.405 27.4837 100.484 27.3302 100.38 27.2273C99.964 27.6879 99.7826 27.9189 100.017 28.4048C99.6283 28.9161 99.2641 29.3767 98.927 29.7866C98.4599 30.3753 97.7585 31.4753 97.1629 32.319C97.6814 32.012 98.0714 31.4753 99.1098 31.0401C100.018 30.657 100.562 30.5542 101.497 30.2978C101.574 29.633 101.834 29.1457 101.938 28.7879L102.379 29.171C102.691 28.3781 103.054 26.3048 103.339 25.1541L103.262 24.8977L103.261 24.8991ZM98.7199 33.5486V33.5233C98.1485 33.5486 97.9157 33.5993 97.8114 34.0092C98.0442 33.881 98.4342 33.7275 98.7199 33.5486ZM101.004 36.1332L100.9 36.4656H101.055L101.16 36.0557L101.004 36.1318V36.1332ZM101.808 29.9668C101.704 30.2739 101.887 30.2739 102.068 30.2485L102.094 29.9668H101.808ZM102.042 29.557L101.938 29.5316L101.834 29.8133H102.067L102.041 29.557H102.042ZM102.795 26.409H102.562L102.769 25.7174L103.004 25.6146L102.797 26.4076L102.795 26.409Z" fill="#D63241"/>
<path d="M123.554 23.0826C123.84 22.9037 124.358 22.7755 124.904 22.7502C125.838 22.7248 126.565 22.853 127.007 23.1601L126.488 23.5178L126.54 23.6206C126.721 23.6206 127.214 23.4671 127.37 23.3643L128.097 24.1319C126.747 24.746 124.334 26.5123 123.01 28.3024C122.854 28.5067 122.75 28.1996 122.594 28.3024C122.543 29.2236 121.997 29.7095 121.375 30.6828C121.245 30.9138 121.296 31.2462 121.14 31.6039C121.14 31.7574 120.752 31.911 120.673 32.142C120.025 34.1124 119.142 36.159 118.312 38.2576L117.144 37.7196L116.988 38.0773C115.327 37.6421 115.171 37.0026 114.938 35.2885C114.861 34.6237 115.068 33.4716 114.887 32.9082C114.264 31.1166 114.861 30.349 114.705 29.0447L114.575 28.0475C113.771 28.3038 112.863 29.0715 112.188 30.2743L112.267 30.6842C110.97 33.0899 109.802 36.4153 108.633 37.9519H107.906C107.153 37.9519 106.739 36.2378 106.428 36.0843L106.272 34.9589C106.142 34.1659 106.376 33.8843 106.558 33.3983C108.4 28.9968 111.359 26.3362 113.408 24.2629C114.187 24.5446 116.315 25.8489 116.678 26.7968C116.989 27.5644 117.301 29.1771 117.561 30.225C119.326 27.2052 121.92 23.4446 122.492 23.2389L123.037 23.1615C121.427 24.7221 120.286 26.5644 119.663 27.4602C119.43 27.8433 119.326 27.9982 119.378 28.0236L119.533 28.1264C120.286 26.9742 122.024 24.5432 123.556 23.0854L123.554 23.0826ZM113.278 24.8742L112.707 25.4629C113.018 25.7193 113.304 25.2066 113.485 25.0277L113.278 24.8742ZM121.012 33.011L120.779 32.8575C120.805 32.4997 120.83 32.0138 121.142 32.1405L121.012 33.011ZM123.061 27.0742C122.854 27.3813 122.439 27.9193 122.699 28.0461L123.244 27.2278C123.296 27.1503 123.114 26.9968 123.063 27.0742H123.061ZM122.931 24.3615L123.373 23.7981L123.166 23.6953C123.036 23.7981 122.88 23.977 122.724 24.2333C122.75 24.284 122.829 24.3869 122.931 24.3615ZM123.736 26.1784L123.217 26.8432C123.373 26.8179 123.424 26.8686 123.45 26.9714L123.917 26.3066C123.968 26.2559 123.866 26.0249 123.736 26.1784ZM125.708 24.0545L125.76 24.284C126.02 24.1052 126.253 24.0798 126.201 23.6953L125.708 24.053V24.0545Z" fill="#D63241"/>
<path d="M134.764 25.8456H134.478C133.777 26.8174 133.363 28.609 132.169 29.2485L132.273 29.5555L131.262 30.1189C130.249 31.5514 129.809 33.3176 129.238 34.7754C129.161 34.9796 128.822 35.3895 129.161 35.4923C129.238 35.5176 129.421 34.981 129.446 34.9036C130.043 33.5725 130.485 31.5767 131.419 30.5288C131.782 30.4006 131.523 30.7077 131.47 30.7851C130.562 32.295 130.12 34.0345 129.369 35.8261C128.851 37.0289 128.668 38.129 128.798 38.6402C128.331 38.4867 127.915 38.3078 127.501 38.0769V37.2585C127.319 37.4121 127.241 37.5909 127.215 37.8726C126.618 37.4374 126.125 36.8487 125.788 35.9529C125.788 31.3471 130.615 25.0526 132.483 21.6737C132.639 21.4694 132.976 21.3159 133.262 21.3159C133.521 21.3159 133.78 21.4187 134.066 21.4948V22.1089C134.584 22.3131 135 22.9019 135 23.4653C135 24.1568 134.896 25.078 134.766 25.8456H134.764ZM128.692 36.0557L128.406 36.7472C128.381 36.8233 128.458 37.0796 128.613 36.8233L128.976 35.9275C128.613 35.5698 128.716 35.9782 128.691 36.0557H128.692Z" fill="#D63241"/>
</svg>
