<svg width="158" height="30" viewBox="0 0 158 30" fill="none" xmlns="http://www.w3.org/2000/svg">
<path d="M119.554 19.7873L119.24 18.6952C109.922 18.4752 93.7124 21.429 86.7748 18.4833L84.1898 19.6595L78.1223 17.2202C64.4118 16.9763 48.3969 19.7675 34.9495 21.2752C33.0688 21.4975 29.0921 21.2414 28.5607 22.796C28.4227 23.1551 33.3426 22.495 34.0521 22.3971C46.4132 21.3087 64.4485 17.9415 74.6914 18.8589C76.2179 19.9213 73.2333 19.7105 72.494 19.7047C58.2172 20.0556 42.4359 22.7737 25.8552 24.4387C14.7077 25.5027 4.83385 27.5897 0.481309 29.3815C1.31693 27.207 2.4321 25.1649 4.00708 22.9962L11.2026 20.9237C9.65293 20.619 7.99357 20.7717 5.48831 21.3868C8.65776 18.002 13.292 14.627 20.7975 11.0695C61.2957 -0.594951 121.958 1.91552 153.726 0.500674C155.693 0.578665 157.415 1.4786 157.729 2.57075C158.015 3.56461 157.396 4.81341 157.042 6.09819L151.642 7.65346C150.417 10.153 145.698 13.2331 140.744 14.6599C134.663 16.4114 126.449 18.3456 119.556 19.7928L119.554 19.7873ZM23.0909 22.4317L16.6955 23.091C15.9984 23.1853 13.8293 24.1294 16.2548 24.0754L24.531 23.1938C27.2772 20.9007 23.7988 22.3283 23.0894 22.4262L23.0909 22.4317Z" fill="#D63241"/>
</svg>
